<mxfile host="app.diagrams.net" modified="2023-11-24T07:14:56.080Z" agent="Mozilla/5.0 (X11; Linux x86_64) AppleWebKit/537.36 (KHTML, like Gecko) Chrome/119.0.0.0 Safari/537.36" etag="eVp7WKoPqFSN7NNpsb0v" version="22.1.3" type="github">
  <diagram id="C5RBs43oDa-KdzZeNtuy" name="Page-1">
    <mxGraphModel dx="1434" dy="787" grid="1" gridSize="10" guides="1" tooltips="1" connect="1" arrows="1" fold="1" page="1" pageScale="1" pageWidth="827" pageHeight="1169" math="0" shadow="0">
      <root>
        <mxCell id="WIyWlLk6GJQsqaUBKTNV-0" />
        <mxCell id="WIyWlLk6GJQsqaUBKTNV-1" parent="WIyWlLk6GJQsqaUBKTNV-0" />
        <mxCell id="3RhVTiTr5YupP_TF8lla-2" value="" style="edgeStyle=orthogonalEdgeStyle;rounded=0;orthogonalLoop=1;jettySize=auto;html=1;" edge="1" parent="WIyWlLk6GJQsqaUBKTNV-1" source="3RhVTiTr5YupP_TF8lla-0" target="3RhVTiTr5YupP_TF8lla-1">
          <mxGeometry relative="1" as="geometry" />
        </mxCell>
        <mxCell id="3RhVTiTr5YupP_TF8lla-0" value="START" style="rounded=1;whiteSpace=wrap;html=1;" vertex="1" parent="WIyWlLk6GJQsqaUBKTNV-1">
          <mxGeometry x="350" y="60" width="120" height="60" as="geometry" />
        </mxCell>
        <mxCell id="3RhVTiTr5YupP_TF8lla-12" style="edgeStyle=orthogonalEdgeStyle;rounded=0;orthogonalLoop=1;jettySize=auto;html=1;entryX=0.5;entryY=0;entryDx=0;entryDy=0;" edge="1" parent="WIyWlLk6GJQsqaUBKTNV-1" source="3RhVTiTr5YupP_TF8lla-1" target="3RhVTiTr5YupP_TF8lla-11">
          <mxGeometry relative="1" as="geometry" />
        </mxCell>
        <mxCell id="3RhVTiTr5YupP_TF8lla-1" value="FORM SECTION&lt;br&gt;&amp;gt; Nama&lt;br&gt;&amp;gt; Item yang ingin di beli&lt;br&gt;&amp;gt; Pembayaran&amp;nbsp;&lt;br&gt;&amp;gt; cash&amp;nbsp;&lt;br&gt;&amp;gt; transfer&lt;br&gt;&amp;gt; TOP (30 hari)&lt;br&gt;&amp;gt; Edisi&lt;br&gt;" style="rounded=1;whiteSpace=wrap;html=1;" vertex="1" parent="WIyWlLk6GJQsqaUBKTNV-1">
          <mxGeometry x="310" y="220" width="200" height="190" as="geometry" />
        </mxCell>
        <mxCell id="3RhVTiTr5YupP_TF8lla-6" value="" style="edgeStyle=orthogonalEdgeStyle;rounded=0;orthogonalLoop=1;jettySize=auto;html=1;" edge="1" parent="WIyWlLk6GJQsqaUBKTNV-1" source="3RhVTiTr5YupP_TF8lla-3" target="3RhVTiTr5YupP_TF8lla-5">
          <mxGeometry relative="1" as="geometry" />
        </mxCell>
        <mxCell id="3RhVTiTr5YupP_TF8lla-3" value="SELECT QUANTITY SELECTION PRODUCT" style="whiteSpace=wrap;html=1;aspect=fixed;" vertex="1" parent="WIyWlLk6GJQsqaUBKTNV-1">
          <mxGeometry x="631" y="224" width="150" height="150" as="geometry" />
        </mxCell>
        <mxCell id="3RhVTiTr5YupP_TF8lla-4" style="edgeStyle=orthogonalEdgeStyle;rounded=0;orthogonalLoop=1;jettySize=auto;html=1;entryX=-0.037;entryY=0.609;entryDx=0;entryDy=0;entryPerimeter=0;" edge="1" parent="WIyWlLk6GJQsqaUBKTNV-1" source="3RhVTiTr5YupP_TF8lla-1" target="3RhVTiTr5YupP_TF8lla-3">
          <mxGeometry relative="1" as="geometry" />
        </mxCell>
        <mxCell id="3RhVTiTr5YupP_TF8lla-8" style="edgeStyle=orthogonalEdgeStyle;rounded=0;orthogonalLoop=1;jettySize=auto;html=1;entryX=0;entryY=0.5;entryDx=0;entryDy=0;" edge="1" parent="WIyWlLk6GJQsqaUBKTNV-1" source="3RhVTiTr5YupP_TF8lla-5" target="3RhVTiTr5YupP_TF8lla-7">
          <mxGeometry relative="1" as="geometry" />
        </mxCell>
        <mxCell id="3RhVTiTr5YupP_TF8lla-5" value="SELECT PAYMENT&amp;nbsp;" style="whiteSpace=wrap;html=1;aspect=fixed;" vertex="1" parent="WIyWlLk6GJQsqaUBKTNV-1">
          <mxGeometry x="880" y="224" width="150" height="150" as="geometry" />
        </mxCell>
        <mxCell id="3RhVTiTr5YupP_TF8lla-7" value="A5 SIZE PAPER invoice&lt;br&gt;&amp;gt; NO KWITANSI&lt;br&gt;&amp;gt; Nama pembeli&lt;br&gt;&amp;gt; Pembayaran&lt;br&gt;&amp;gt; Harga yang tertera di atas suda include ppn 11%" style="whiteSpace=wrap;html=1;aspect=fixed;" vertex="1" parent="WIyWlLk6GJQsqaUBKTNV-1">
          <mxGeometry x="1160" y="228.5" width="141" height="141" as="geometry" />
        </mxCell>
        <mxCell id="3RhVTiTr5YupP_TF8lla-11" value="PENGURANGAN STOCK GUDANG SESUAI PESANAN" style="whiteSpace=wrap;html=1;aspect=fixed;" vertex="1" parent="WIyWlLk6GJQsqaUBKTNV-1">
          <mxGeometry x="325" y="530" width="170" height="170" as="geometry" />
        </mxCell>
      </root>
    </mxGraphModel>
  </diagram>
</mxfile>
